<svg xmlns="http://www.w3.org/2000/svg" width="20" height="20" viewBox="0 0 13.229 13.229"><path style="fill:#000;stroke-width:.499999;stroke-linecap:round;stroke-linejoin:round" d="M89.488 34.654c-1.108 0-1.533.53-1.63 1.171l-.088.575a5.168 5.168 0 0 0-.496.206l-.469-.345c-.522-.385-1.197-.459-1.981.325-.784.783-.784 1.522-.325 1.981l.343.466a5.168 5.168 0 0 0-.213.512l-.571.087c-.642.098-1.171.523-1.171 1.63 0 1.11.522 1.632 1.171 1.632l.567.086a5.168 5.168 0 0 0 .21.51l-.35.474c-.384.523-.458 1.198.326 1.982.783.783 1.522.783 1.98.325l.47-.346a5.168 5.168 0 0 0 .509.213l.087.574c.098.641.523 1.171 1.63 1.171 1.11 0 1.631-.522 1.631-1.171l.086-.564a5.168 5.168 0 0 0 .534-.221l.46.338c.458.459 1.197.459 1.98-.325.784-.783.71-1.459.325-1.981l-.34-.462a5.168 5.168 0 0 0 .214-.517l.567-.086c.65 0 1.172-.523 1.172-1.631s-.53-1.533-1.172-1.63l-.57-.088a5.168 5.168 0 0 0-.217-.52l.333-.452c.459-.46.459-1.198-.325-1.982-.784-.783-1.459-.71-1.981-.324l-.459.337a5.168 5.168 0 0 0-.52-.214l-.087-.565c0-.649-.522-1.171-1.63-1.171zm0 3.744a2.87 2.87 0 0 1 .013 0 2.87 2.87 0 0 1 2.871 2.87 2.87 2.87 0 0 1-2.87 2.871 2.87 2.87 0 0 1-2.872-2.87 2.87 2.87 0 0 1 2.858-2.871z" transform="translate(-82.887 -34.654)"/></svg>