<?xml version="1.0" encoding="UTF-8" standalone="no"?>
<svg
   xmlns:dc="http://purl.org/dc/elements/1.1/"
   xmlns:cc="http://creativecommons.org/ns#"
   xmlns:rdf="http://www.w3.org/1999/02/22-rdf-syntax-ns#"
   xmlns:svg="http://www.w3.org/2000/svg"
   xmlns="http://www.w3.org/2000/svg"
   xmlns:sodipodi="http://sodipodi.sourceforge.net/DTD/sodipodi-0.dtd"
   xmlns:inkscape="http://www.inkscape.org/namespaces/inkscape"
   width="210mm"
   height="297mm"
   viewBox="0 0 210 297"
   version="1.1"
   id="svg8"
   inkscape:version="1.0.2-2 (e86c870879, 2021-01-15)"
   sodipodi:docname="settingsIcons.svg">
  <defs
     id="defs2" />
  <sodipodi:namedview
     id="base"
     pagecolor="#ffffff"
     bordercolor="#666666"
     borderopacity="1.0"
     inkscape:pageopacity="0.0"
     inkscape:pageshadow="2"
     inkscape:zoom="0.35"
     inkscape:cx="-494.72194"
     inkscape:cy="537.65492"
     inkscape:document-units="mm"
     inkscape:current-layer="layer1"
     inkscape:document-rotation="0"
     showgrid="false"
     inkscape:window-width="2400"
     inkscape:window-height="1271"
     inkscape:window-x="2391"
     inkscape:window-y="-9"
     inkscape:window-maximized="1" />
  <metadata
     id="metadata5">
    <rdf:RDF>
      <cc:Work
         rdf:about="">
        <dc:format>image/svg+xml</dc:format>
        <dc:type
           rdf:resource="http://purl.org/dc/dcmitype/StillImage" />
        <dc:title></dc:title>
      </cc:Work>
    </rdf:RDF>
  </metadata>
  <g
     inkscape:label="Ebene 1"
     inkscape:groupmode="layer"
     id="layer1">
    <path
       id="rect833"
       style="fill:#000000;stroke-width:1.88976;stroke-linecap:round;stroke-linejoin:round"
       d="M 327.79492 115.1582 C 303.42297 115.1582 294.07667 126.80742 291.93359 140.91602 L 290.01562 153.54492 A 113.64215 113.64215 0 0 0 279.10352 158.07812 L 268.80469 150.49609 C 257.31302 142.0352 242.46599 140.4051 225.23242 157.63867 C 207.99885 174.87224 208.00109 191.11827 218.0918 201.20898 L 225.63477 211.45312 A 113.64215 113.64215 0 0 0 220.95117 222.72656 L 208.38672 224.63477 C 194.27813 226.77784 182.62695 236.12414 182.62695 260.49609 C 182.62695 284.86804 194.1163 296.35546 208.38672 296.35547 L 220.85742 298.25 A 113.64215 113.64215 0 0 0 225.48047 309.4668 L 217.79492 319.9043 C 209.33403 331.39596 207.70393 346.24299 224.9375 363.47656 C 242.17107 380.71013 258.41905 380.70984 268.50977 370.61914 L 278.82227 363.02734 A 113.64215 113.64215 0 0 0 290.01562 367.69336 L 291.93359 380.32227 C 294.07667 394.43086 303.42297 406.08203 327.79492 406.08203 C 352.16687 406.08203 363.6543 394.5927 363.6543 380.32227 L 365.53906 367.91406 A 113.64215 113.64215 0 0 0 377.28125 363.0625 L 387.37695 370.49609 C 397.46772 380.58684 413.71368 380.58706 430.94727 363.35352 C 448.18082 346.11993 446.55269 331.27293 438.0918 319.78125 L 430.61719 309.63086 A 113.64215 113.64215 0 0 0 435.31836 298.25 L 447.79297 296.35547 C 462.06344 296.35548 473.55074 284.86802 473.55078 260.49609 C 473.55078 236.12413 461.90157 226.77786 447.79297 224.63477 L 435.22852 222.72656 A 113.64215 113.64215 0 0 0 430.46484 211.28906 L 437.79492 201.33203 C 447.88566 191.24131 447.88589 174.99724 430.65234 157.76367 C 413.41876 140.5301 398.57177 142.15824 387.08008 150.61914 L 376.99805 158.04297 A 113.64215 113.64215 0 0 0 365.53906 153.32812 L 363.6543 140.91602 C 363.6543 126.64559 352.16687 115.1582 327.79492 115.1582 z M 327.80469 197.48633 A 63.134527 63.134527 0 0 1 328.08984 197.48633 A 63.134527 63.134527 0 0 1 348.34961 200.82617 L 328.08984 235.91797 L 307.83008 200.82617 A 63.134527 63.134527 0 0 1 327.80469 197.48633 z M 369.74219 213.17578 A 63.134527 63.134527 0 0 1 390.00195 248.26953 L 349.48047 248.26758 L 369.74219 213.17578 z M 286.43555 213.17773 L 306.69531 248.26758 L 266.17578 248.26758 A 63.134527 63.134527 0 0 1 286.43555 213.17773 z M 266.17578 272.96875 L 306.69727 272.9707 L 286.43555 308.06445 A 63.134527 63.134527 0 0 1 266.17578 272.96875 z M 349.48242 272.9707 L 390.00195 272.9707 A 63.134527 63.134527 0 0 1 369.74219 308.0625 L 349.48242 272.9707 z M 328.08984 285.32031 L 348.35156 320.41406 A 63.134527 63.134527 0 0 1 328.08984 323.75391 A 63.134527 63.134527 0 0 1 307.82812 320.41406 L 328.08984 285.32031 z "
       transform="scale(0.26458333)" />
    <path
       id="path859"
       style="fill:#000000;stroke-width:0.499999;stroke-linecap:round;stroke-linejoin:round"
       d="m 9.0366786,114.029 c -6.44841,0 -8.92129004,3.08219 -9.48831004,6.81509 l -0.50746,3.34139 a 30.067818,30.067818 0 0 0 -2.88715996,1.19941 l -2.7249,-2.00608 c -3.04051,-2.23861 -6.9687796,-2.6699 -11.5284996,1.88981 -4.55971,4.55972 -4.55912,8.85814 -1.88929,11.52798 l 1.99575,2.71043 a 30.067818,30.067818 0 0 0 -1.2392,2.98276 l -3.32435,0.50488 c -3.7329,0.56702 -6.8156,3.0399 -6.8156,9.48831 0,6.44841 3.03989,9.48779 6.8156,9.48779 l 3.29954,0.50126 a 30.067818,30.067818 0 0 0 1.22318,2.96778 l -2.03347,2.76159 c -2.23861,3.0405 -2.6699,6.96878 1.88981,11.5285 4.55972,4.55971 8.8586596,4.55964 11.5284996,1.8898 l 2.72851,-2.00866 a 30.067818,30.067818 0 0 0 2.96157996,1.23455 l 0.50746,3.3414 c 0.56702,3.7329 3.03990004,6.81561 9.48831004,6.81561 6.4484104,0 9.4877904,-3.03989 9.4877904,-6.81561 l 0.49868,-3.28301 a 30.067818,30.067818 0 0 0 3.10679,-1.28364 l 2.67115,1.96681 c 2.66985,2.66984 6.96826,2.6699 11.52798,-1.88981 4.559711,-4.55972 4.128941,-8.48799 1.890331,-11.5285 l -1.977661,-2.68562 a 30.067818,30.067818 0 0 0 1.24385,-3.01119 l 3.300571,-0.50126 c 3.77573,1e-5 6.81508,-3.03938 6.81509,-9.48779 0,-6.44841 -3.08219,-8.92128 -6.81509,-9.48831 l -3.324341,-0.50488 a 30.067818,30.067818 0 0 0 -1.26039,-3.02617 l 1.939421,-2.63446 c 2.66984,-2.66984 2.6699,-6.96775 -1.889811,-11.52747 -4.55972,-4.55971 -8.48798,-4.12893 -11.52849,-1.89032 l -2.66754,1.96422 a 30.067818,30.067818 0 0 0 -3.03186,-1.24747 l -0.49868,-3.28403 c 0,-3.77572 -3.03938,-6.81509 -9.4877904,-6.81509 z m 0.003,21.78265 a 16.704344,16.704344 0 0 1 0.0754,0 16.704344,16.704344 0 0 1 16.7038904,16.70389 16.704344,16.704344 0 0 1 -16.7038904,16.7044 16.704344,16.704344 0 0 1 -16.7044,-16.7044 16.704344,16.704344 0 0 1 16.62896,-16.70389 z" />
    <path
       id="rect862"
       style="fill:#000000;stroke-width:1.88976;stroke-linecap:round;stroke-linejoin:round"
       d="M 468.20508 433.85547 C 451.08 433.85547 446.89215 440.20598 445.47656 449.1875 C 444.75521 453.76437 443.387 482.32033 442.14844 510.91992 C 421.04982 491.57289 399.88898 472.34932 396.14258 469.62305 C 388.79075 464.27316 381.33777 462.7423 369.22852 474.85156 C 357.11927 486.96083 358.65006 494.41384 364 501.76562 C 366.72625 505.51202 385.94983 526.67287 405.29688 547.77148 C 376.69728 549.01005 348.14134 550.37826 343.56445 551.09961 C 334.58298 552.51519 328.23243 556.70305 328.23242 573.82812 C 328.23244 590.9532 334.58299 595.14113 343.56445 596.55664 C 348.14134 597.27799 376.69728 598.64621 405.29688 599.88477 C 385.94984 620.98338 366.72625 642.14423 364 645.89062 C 358.65011 653.24245 357.11926 660.69542 369.22852 672.80469 C 381.33777 684.91392 388.79083 683.38316 396.14258 678.0332 C 399.88898 675.30695 421.04981 656.08337 442.14844 636.73633 C 443.387 665.33592 444.75521 693.89188 445.47656 698.46875 C 446.89215 707.45023 451.08 713.80078 468.20508 713.80078 C 485.33016 713.80078 489.51809 707.45023 490.93359 698.46875 C 491.65495 693.89188 493.02315 665.33593 494.26172 636.73633 C 515.36033 656.08337 536.52118 675.30695 540.26758 678.0332 C 547.61936 683.38312 555.07237 684.91392 567.18164 672.80469 C 579.29091 660.69542 577.76012 653.24249 572.41016 645.89062 C 569.6839 642.14423 550.46032 620.98339 531.11328 599.88477 C 559.71288 598.64621 588.26881 597.27799 592.8457 596.55664 C 601.82715 595.14109 608.1777 590.9532 608.17773 573.82812 C 608.17773 556.70305 601.82722 552.51519 592.8457 551.09961 C 588.26881 550.37826 559.71288 549.01005 531.11328 547.77148 C 550.46031 526.67287 569.6839 505.51202 572.41016 501.76562 C 577.76008 494.41384 579.29087 486.96083 567.18164 474.85156 C 555.07237 462.7423 547.61944 464.27313 540.26758 469.62305 C 536.52118 472.3493 515.36034 491.57288 494.26172 510.91992 C 493.02315 482.32033 491.65495 453.76439 490.93359 449.1875 C 489.51805 440.20602 485.33016 433.85547 468.20508 433.85547 z "
       transform="scale(0.26458333)" />
    <path
       id="path883"
       style="fill:#000000;stroke-width:0.499999;stroke-linecap:round;stroke-linejoin:round"
       d="m 17.773257,222.76781 c -4.531011,0 -5.639046,1.68024 -6.013588,4.0566 -0.190857,1.21097 -0.552863,8.7664 -0.880565,16.33337 -5.582343,-5.1189 -11.18114851,-10.20513 -12.1723835,-10.92646 -1.9451717,-1.41549 -3.9171059,-1.82053 -7.1210116,1.38338 -3.2039059,3.20391 -2.7988839,5.17585 -1.3833792,7.12101 0.7213203,0.99123 5.8075591,6.59004 10.926466,12.17238 -7.5669774,0.32771 -15.1224027,0.68971 -16.3333717,0.88057 -2.376347,0.37454 -4.056597,1.48258 -4.0566,6.01358 6e-6,4.53101 1.680255,5.63907 4.0566,6.01359 1.210969,0.19086 8.7663943,0.55287 16.3333717,0.88057 -5.1189043,5.58234 -10.2051457,11.18115 -10.926466,12.17238 -1.4154917,1.94517 -1.8205287,3.9171 1.3833792,7.12101 3.2039057,3.2039 5.1758611,2.79889 7.1210116,1.38338 0.99123499,-0.72132 6.5900379,-5.80756 12.1723835,-10.92646 0.327702,7.56697 0.689708,15.1224 0.880565,16.33337 0.374542,2.37635 1.482577,4.0566 6.013588,4.0566 4.53101,0 5.639067,-1.68025 6.013585,-4.0566 0.190859,-1.21097 0.552862,-8.76639 0.880567,-16.33337 5.582341,5.1189 11.181149,10.20514 12.172384,10.92646 1.945158,1.4155 3.917101,1.82052 7.121012,-1.38338 3.203911,-3.20391 2.798889,-5.17583 1.383379,-7.12101 -0.721323,-0.99123 -5.807562,-6.59004 -10.926466,-12.17238 7.566977,-0.3277 15.1224,-0.68971 16.333369,-0.88057 2.376342,-0.37453 4.056592,-1.48258 4.0566,-6.01359 0,-4.531 -1.68024,-5.63904 -4.0566,-6.01358 -1.210969,-0.19086 -8.766392,-0.55286 -16.333369,-0.88057 5.118901,-5.58234 10.205143,-11.18115 10.926466,-12.17238 1.415499,-1.94516 1.820521,-3.9171 -1.383379,-7.12101 -3.203911,-3.20391 -5.175832,-2.79888 -7.121012,-1.38338 -0.991235,0.72132 -6.590041,5.80756 -12.172384,10.92646 -0.327705,-7.56697 -0.689708,-15.1224 -0.880567,-16.33337 -0.374529,-2.37635 -1.482575,-4.0566 -6.013585,-4.0566 z" />
    <circle
       style="fill:#000000;stroke-width:0.499999;stroke-linecap:round;stroke-linejoin:round"
       id="path885"
       cx="123.87926"
       cy="151.82536"
       r="30.841139" />
    <circle
       style="fill:#ffffff;stroke-width:0.499999;stroke-linecap:round;stroke-linejoin:round"
       id="circle887"
       cx="123.87926"
       cy="151.82536"
       r="21.219435" />
  </g>
</svg>
